<?xml version="1.0" encoding="utf-8" standalone="no"?>
<!DOCTYPE svg PUBLIC "-//W3C//DTD SVG 1.1//EN"
  "http://www.w3.org/Graphics/SVG/1.1/DTD/svg11.dtd">
<svg xmlns:xlink="http://www.w3.org/1999/xlink" width="486.144pt" height="256.536pt" viewBox="0 0 486.144 256.536" xmlns="http://www.w3.org/2000/svg" version="1.1">
 <metadata>
  <rdf:RDF xmlns:dc="http://purl.org/dc/elements/1.1/" xmlns:cc="http://creativecommons.org/ns#" xmlns:rdf="http://www.w3.org/1999/02/22-rdf-syntax-ns#">
   <cc:Work>
    <dc:type rdf:resource="http://purl.org/dc/dcmitype/StillImage"/>
    <dc:format>image/svg+xml</dc:format>
    <dc:creator>
     <cc:Agent>
      <dc:title>Matplotlib v3.11.1, https://matplotlib.org/</dc:title>
     </cc:Agent>
    </dc:creator>
   </cc:Work>
  </rdf:RDF>
 </metadata>
 <defs>
  <style type="text/css">*{stroke-linejoin: round; stroke-linecap: butt}</style>
 </defs>
 <g id="figure_1">
  <g id="patch_1">
   <path d="M 0 256.536
L 486.144 256.536
L 486.144 0
L 0 0
z
" style="fill: #fbfcfe"/>
  </g>
  <g id="axes_1">
   <g id="patch_2">
    <path d="M 16.63488 114.593472
L 110.98368 114.593472
Q 116.644608 114.593472 116.644608 112.09824
L 116.644608 85.06656
Q 116.644608 82.571328 110.98368 82.571328
L 16.63488 82.571328
Q 10.973952 82.571328 10.973952 85.06656
L 10.973952 112.09824
Q 10.973952 114.593472 16.63488 114.593472
z
" clip-path="url(#pfe5e8292e2)" style="fill: #dce8f4; stroke: #315e96; stroke-width: 0.9; stroke-linejoin: miter"/>
   </g>
   <g id="patch_3">
    <path d="M 16.63488 160.339392
L 110.98368 160.339392
Q 116.644608 160.339392 116.644608 157.84416
L 116.644608 130.81248
Q 116.644608 128.317248 110.98368 128.317248
L 16.63488 128.317248
Q 10.973952 128.317248 10.973952 130.81248
L 10.973952 157.84416
Q 10.973952 160.339392 16.63488 160.339392
z
" clip-path="url(#pfe5e8292e2)" style="fill: #dce8f4; stroke: #315e96; stroke-width: 0.9; stroke-linejoin: miter"/>
   </g>
   <g id="patch_4">
    <path d="M 16.63488 206.085312
L 110.98368 206.085312
Q 116.644608 206.085312 116.644608 203.59008
L 116.644608 176.5584
Q 116.644608 174.063168 110.98368 174.063168
L 16.63488 174.063168
Q 10.973952 174.063168 10.973952 176.5584
L 10.973952 203.59008
Q 10.973952 206.085312 16.63488 206.085312
z
" clip-path="url(#pfe5e8292e2)" style="fill: #dce8f4; stroke: #315e96; stroke-width: 0.9; stroke-linejoin: miter"/>
   </g>
   <g id="patch_5">
    <path d="M 134.57088 114.593472
L 228.91968 114.593472
Q 234.580608 114.593472 234.580608 112.09824
L 234.580608 85.06656
Q 234.580608 82.571328 228.91968 82.571328
L 134.57088 82.571328
Q 128.909952 82.571328 128.909952 85.06656
L 128.909952 112.09824
Q 128.909952 114.593472 134.57088 114.593472
z
" clip-path="url(#pfe5e8292e2)" style="fill: #f4e4d7; stroke: #b66b32; stroke-width: 0.9; stroke-linejoin: miter"/>
   </g>
   <g id="patch_6">
    <path d="M 134.57088 160.339392
L 228.91968 160.339392
Q 234.580608 160.339392 234.580608 157.84416
L 234.580608 130.81248
Q 234.580608 128.317248 228.91968 128.317248
L 134.57088 128.317248
Q 128.909952 128.317248 128.909952 130.81248
L 128.909952 157.84416
Q 128.909952 160.339392 134.57088 160.339392
z
" clip-path="url(#pfe5e8292e2)" style="fill: #f4e4d7; stroke: #b66b32; stroke-width: 0.9; stroke-linejoin: miter"/>
   </g>
   <g id="patch_7">
    <path d="M 134.57088 206.085312
L 228.91968 206.085312
Q 234.580608 206.085312 234.580608 203.59008
L 234.580608 176.5584
Q 234.580608 174.063168 228.91968 174.063168
L 134.57088 174.063168
Q 128.909952 174.063168 128.909952 176.5584
L 128.909952 203.59008
Q 128.909952 206.085312 134.57088 206.085312
z
" clip-path="url(#pfe5e8292e2)" style="fill: #f4e4d7; stroke: #b66b32; stroke-width: 0.9; stroke-linejoin: miter"/>
   </g>
   <g id="patch_8">
    <path d="M 252.50688 114.593472
L 346.85568 114.593472
Q 352.516608 114.593472 352.516608 112.09824
L 352.516608 85.06656
Q 352.516608 82.571328 346.85568 82.571328
L 252.50688 82.571328
Q 246.845952 82.571328 246.845952 85.06656
L 246.845952 112.09824
Q 246.845952 114.593472 252.50688 114.593472
z
" clip-path="url(#pfe5e8292e2)" style="fill: #e7ebd9; stroke: #71804b; stroke-width: 0.9; stroke-linejoin: miter"/>
   </g>
   <g id="patch_9">
    <path d="M 252.50688 160.339392
L 346.85568 160.339392
Q 352.516608 160.339392 352.516608 157.84416
L 352.516608 130.81248
Q 352.516608 128.317248 346.85568 128.317248
L 252.50688 128.317248
Q 246.845952 128.317248 246.845952 130.81248
L 246.845952 157.84416
Q 246.845952 160.339392 252.50688 160.339392
z
" clip-path="url(#pfe5e8292e2)" style="fill: #e7ebd9; stroke: #71804b; stroke-width: 0.9; stroke-linejoin: miter"/>
   </g>
   <g id="patch_10">
    <path d="M 252.50688 206.085312
L 346.85568 206.085312
Q 352.516608 206.085312 352.516608 203.59008
L 352.516608 176.5584
Q 352.516608 174.063168 346.85568 174.063168
L 252.50688 174.063168
Q 246.845952 174.063168 246.845952 176.5584
L 246.845952 203.59008
Q 246.845952 206.085312 252.50688 206.085312
z
" clip-path="url(#pfe5e8292e2)" style="fill: #e7ebd9; stroke: #71804b; stroke-width: 0.9; stroke-linejoin: miter"/>
   </g>
   <g id="patch_11">
    <path d="M 370.44288 114.593472
L 464.79168 114.593472
Q 470.452608 114.593472 470.452608 112.09824
L 470.452608 85.06656
Q 470.452608 82.571328 464.79168 82.571328
L 370.44288 82.571328
Q 364.781952 82.571328 364.781952 85.06656
L 364.781952 112.09824
Q 364.781952 114.593472 370.44288 114.593472
z
" clip-path="url(#pfe5e8292e2)" style="fill: #f0e2e8; stroke: #9b6077; stroke-width: 0.9; stroke-linejoin: miter"/>
   </g>
   <g id="patch_12">
    <path d="M 370.44288 160.339392
L 464.79168 160.339392
Q 470.452608 160.339392 470.452608 157.84416
L 470.452608 130.81248
Q 470.452608 128.317248 464.79168 128.317248
L 370.44288 128.317248
Q 364.781952 128.317248 364.781952 130.81248
L 364.781952 157.84416
Q 364.781952 160.339392 370.44288 160.339392
z
" clip-path="url(#pfe5e8292e2)" style="fill: #f0e2e8; stroke: #9b6077; stroke-width: 0.9; stroke-linejoin: miter"/>
   </g>
   <g id="patch_13">
    <path d="M 370.44288 206.085312
L 464.79168 206.085312
Q 470.452608 206.085312 470.452608 203.59008
L 470.452608 176.5584
Q 470.452608 174.063168 464.79168 174.063168
L 370.44288 174.063168
Q 364.781952 174.063168 364.781952 176.5584
L 364.781952 203.59008
Q 364.781952 206.085312 370.44288 206.085312
z
" clip-path="url(#pfe5e8292e2)" style="fill: #f0e2e8; stroke: #9b6077; stroke-width: 0.9; stroke-linejoin: miter"/>
   </g>
   <g id="patch_14">
    <path d="M 112.981624 143.28864
Q 121.599214 143.28864 129.210574 143.28864
" clip-path="url(#pfe5e8292e2)" style="fill: none; stroke: #626d7c; stroke-width: 0.9; stroke-linecap: round"/>
    <path d="M 126.010574 141.68864
L 129.210574 143.28864
L 126.010574 144.88864
z
" clip-path="url(#pfe5e8292e2)" style="fill: #626d7c; stroke: #626d7c; stroke-width: 0.9; stroke-linecap: round"/>
   </g>
   <g id="patch_15">
    <path d="M 230.917624 143.28864
Q 239.535214 143.28864 247.146574 143.28864
" clip-path="url(#pfe5e8292e2)" style="fill: none; stroke: #626d7c; stroke-width: 0.9; stroke-linecap: round"/>
    <path d="M 243.946574 141.68864
L 247.146574 143.28864
L 243.946574 144.88864
z
" clip-path="url(#pfe5e8292e2)" style="fill: #626d7c; stroke: #626d7c; stroke-width: 0.9; stroke-linecap: round"/>
   </g>
   <g id="patch_16">
    <path d="M 348.853624 143.28864
Q 357.471214 143.28864 365.082574 143.28864
" clip-path="url(#pfe5e8292e2)" style="fill: none; stroke: #626d7c; stroke-width: 0.9; stroke-linecap: round"/>
    <path d="M 361.882574 141.68864
L 365.082574 143.28864
L 361.882574 144.88864
z
" clip-path="url(#pfe5e8292e2)" style="fill: #626d7c; stroke: #626d7c; stroke-width: 0.9; stroke-linecap: round"/>
   </g>
   <g id="text_1">
    <text style="font-weight: 700; font-size: 8.5px; font-family: 'Arial', 'Helvetica', 'DejaVu Sans', sans-serif; text-anchor: middle; fill: #172033" x="63.80928" y="60.11424" transform="rotate(-0 63.80928 60.11424)">Public evidence</text>
   </g>
   <g id="text_2">
    <text style="font-size: 7.4px; font-family: 'Arial', 'Helvetica', 'DejaVu Sans', sans-serif; text-anchor: middle; fill: #172033" x="63.80928" y="101.233103" transform="rotate(-0 63.80928 101.233103)">Official disclosures</text>
   </g>
   <g id="text_3">
    <text style="font-size: 7.4px; font-family: 'Arial', 'Helvetica', 'DejaVu Sans', sans-serif; text-anchor: middle; fill: #172033" x="63.80928" y="146.241336" transform="rotate(-0 63.80928 146.241336)">Research papers</text>
   </g>
   <g id="text_4">
    <text style="font-size: 7.4px; font-family: 'Arial', 'Helvetica', 'DejaVu Sans', sans-serif; text-anchor: middle; fill: #172033" x="63.80928" y="192.034662" transform="rotate(-0 63.80928 192.034662)">Open-source references</text>
   </g>
   <g id="text_5">
    <text style="font-weight: 700; font-size: 8.5px; font-family: 'Arial', 'Helvetica', 'DejaVu Sans', sans-serif; text-anchor: middle; fill: #172033" x="181.74528" y="60.11424" transform="rotate(-0 181.74528 60.11424)">Engineering clues</text>
   </g>
   <g id="text_6">
    <text style="font-size: 7.4px; font-family: 'Arial', 'Helvetica', 'DejaVu Sans', sans-serif; text-anchor: middle; fill: #172033" x="181.74528" y="100.49715" transform="rotate(-0 181.74528 100.49715)">Context management</text>
   </g>
   <g id="text_7">
    <text style="font-size: 7.4px; font-family: 'Arial', 'Helvetica', 'DejaVu Sans', sans-serif; text-anchor: middle; fill: #172033" x="181.74528" y="146.24307" transform="rotate(-0 181.74528 146.24307)">State / legal actions</text>
   </g>
   <g id="text_8">
    <text style="font-size: 7.4px; font-family: 'Arial', 'Helvetica', 'DejaVu Sans', sans-serif; text-anchor: middle; fill: #172033" x="181.74528" y="191.943896" transform="rotate(-0 181.74528 191.943896)">Evidence and recovery</text>
   </g>
   <g id="text_9">
    <text style="font-weight: 700; font-size: 8.5px; font-family: 'Arial', 'Helvetica', 'DejaVu Sans', sans-serif; text-anchor: middle; fill: #172033" x="299.68128" y="60.11424" transform="rotate(-0 299.68128 60.11424)">Local abstractions</text>
   </g>
   <g id="text_10">
    <text style="font-size: 7.4px; font-family: 'Arial', 'Helvetica', 'DejaVu Sans', sans-serif; text-anchor: middle; fill: #172033" x="299.68128" y="101.230791" transform="rotate(-0 299.68128 101.230791)">Contracted ReAct</text>
   </g>
   <g id="text_11">
    <text style="font-size: 7.4px; font-family: 'Arial', 'Helvetica', 'DejaVu Sans', sans-serif; text-anchor: middle; fill: #172033" x="299.68128" y="146.976711" transform="rotate(-0 299.68128 146.976711)">Workflow Controlled</text>
   </g>
   <g id="text_12">
    <text style="font-size: 7.4px; font-family: 'Arial', 'Helvetica', 'DejaVu Sans', sans-serif; text-anchor: middle; fill: #172033" x="299.68128" y="191.98899" transform="rotate(-0 299.68128 191.98899)">Goal-Graph Hybrid</text>
   </g>
   <g id="text_13">
    <text style="font-weight: 700; font-size: 8.5px; font-family: 'Arial', 'Helvetica', 'DejaVu Sans', sans-serif; text-anchor: middle; fill: #172033" x="417.61728" y="60.11424" transform="rotate(-0 417.61728 60.11424)">Controlled tests</text>
   </g>
   <g id="text_14">
    <text style="font-size: 7.4px; font-family: 'Arial', 'Helvetica', 'DejaVu Sans', sans-serif; text-anchor: middle; fill: #172033" x="417.61728" y="101.187431" transform="rotate(-0 417.61728 101.187431)">Pilot A: rule tasks</text>
   </g>
   <g id="text_15">
    <text style="font-size: 7.4px; font-family: 'Arial', 'Helvetica', 'DejaVu Sans', sans-serif; text-anchor: middle; fill: #172033" x="417.61728" y="146.241336" transform="rotate(-0 417.61728 146.241336)">Pilot B: open tasks</text>
   </g>
   <g id="text_16">
    <text style="font-size: 7.4px; font-family: 'Arial', 'Helvetica', 'DejaVu Sans', sans-serif; text-anchor: middle; fill: #172033" x="417.61728" y="192.032349" transform="rotate(-0 417.61728 192.032349)">Code-based acceptance</text>
   </g>
   <g id="text_17">
    <text style="font-size: 7px; font-family: 'Arial', 'Helvetica', 'DejaVu Sans', sans-serif; text-anchor: middle; fill: #687385" x="243.072" y="238.9392" transform="rotate(-0 243.072 238.9392)">Claim boundary: public material → testable mechanism hypothesis → local result</text>
   </g>
  </g>
  <g id="text_18">
   <text style="font-weight: 700; font-size: 12px; font-family: 'Arial', 'Helvetica', 'DejaVu Sans', sans-serif; text-anchor: start; fill: #172033" x="12.384" y="15.936328" transform="rotate(-0 12.384 15.936328)">Evidence chain from public clues to local tests</text>
  </g>
  <g id="text_19">
   <text style="font-size: 7.2px; font-family: 'Arial', 'Helvetica', 'DejaVu Sans', sans-serif; text-anchor: start; fill: #687385" x="12.384" y="26.121797" transform="rotate(-0 12.384 26.121797)">Evidence roles stay explicit; product material proposes hypotheses, not internal implementation claims</text>
  </g>
 </g>
 <defs>
  <clipPath id="pfe5e8292e2">
   <rect x="7.2" y="41.4" width="471.744" height="207.936"/>
  </clipPath>
 </defs>
</svg>
